<svg width="168" height="44" viewBox="0 0 168 44" fill="none" xmlns="http://www.w3.org/2000/svg">
<circle cx="22" cy="22" r="22" fill="#FFF4E6"/>
<path d="M16 31V29C16 27.9391 16.4214 26.9217 17.1716 26.1716C17.9217 25.4214 18.9391 25 20 25H24C25.0609 25 26.0783 25.4214 26.8284 26.1716C27.5786 26.9217 28 27.9391 28 29V31M26 17C26 19.2091 24.2091 21 22 21C19.7909 21 18 19.2091 18 17C18 14.7909 19.7909 13 22 13C24.2091 13 26 14.7909 26 17Z" stroke="#E8590C" stroke-width="2" stroke-linecap="round" stroke-linejoin="round"/>
<path d="M55.9055 15.9091V29H53.1378V15.9091H55.9055ZM61.7495 29.1598C61.0037 29.1598 60.3283 28.968 59.7232 28.5845C59.1223 28.1967 58.6451 27.6278 58.2914 26.8778C57.9419 26.1236 57.7672 25.1989 57.7672 24.1037C57.7672 22.9787 57.9483 22.0433 58.3105 21.2976C58.6728 20.5476 59.1543 19.9872 59.7551 19.6165C60.3603 19.2415 61.0229 19.054 61.7431 19.054C62.2928 19.054 62.7509 19.1477 63.1174 19.3352C63.4881 19.5185 63.7864 19.7486 64.0123 20.0256C64.2424 20.2983 64.4171 20.5668 64.5364 20.831H64.6195V15.9091H67.3361V29H64.6515V27.4276H64.5364C64.4086 27.7003 64.2275 27.9709 63.9931 28.2393C63.763 28.5036 63.4625 28.723 63.0918 28.8977C62.7253 29.0724 62.2779 29.1598 61.7495 29.1598ZM62.6124 26.9929C63.0513 26.9929 63.4221 26.8736 63.7246 26.6349C64.0314 26.392 64.2658 26.0533 64.4277 25.6186C64.5939 25.1839 64.677 24.6747 64.677 24.0909C64.677 23.5071 64.5961 23 64.4341 22.5696C64.2722 22.1392 64.0378 21.8068 63.731 21.5724C63.4242 21.3381 63.0513 21.2209 62.6124 21.2209C62.165 21.2209 61.7878 21.3423 61.481 21.5852C61.1742 21.8281 60.9419 22.1648 60.7843 22.5952C60.6266 23.0256 60.5478 23.5241 60.5478 24.0909C60.5478 24.6619 60.6266 25.1669 60.7843 25.6058C60.9462 26.0405 61.1784 26.3814 61.481 26.6286C61.7878 26.8714 62.165 26.9929 62.6124 26.9929ZM74.0494 29.1918C73.0394 29.1918 72.1701 28.9872 71.4414 28.5781C70.717 28.1648 70.1587 27.581 69.7667 26.8267C69.3746 26.0682 69.1786 25.1712 69.1786 24.1357C69.1786 23.1257 69.3746 22.2393 69.7667 21.4766C70.1587 20.7138 70.7106 20.1193 71.4222 19.6932C72.1381 19.267 72.9776 19.054 73.9407 19.054C74.5884 19.054 75.1914 19.1584 75.7496 19.3672C76.3121 19.5717 76.8022 19.8807 77.2198 20.294C77.6417 20.7074 77.9698 21.2273 78.2042 21.8537C78.4386 22.4759 78.5558 23.2045 78.5558 24.0398V24.7876H70.2653V23.1001H75.9925C75.9925 22.7081 75.9073 22.3608 75.7369 22.0582C75.5664 21.7557 75.3299 21.5192 75.0273 21.3487C74.729 21.174 74.3817 21.0866 73.9854 21.0866C73.5721 21.0866 73.2056 21.1825 72.886 21.3743C72.5707 21.5618 72.3235 21.8153 72.1445 22.1349C71.9656 22.4503 71.8739 22.8018 71.8697 23.1896V24.794C71.8697 25.2798 71.9592 25.6996 72.1381 26.0533C72.3214 26.407 72.5792 26.6797 72.9116 26.8714C73.244 27.0632 73.6381 27.1591 74.0941 27.1591C74.3967 27.1591 74.6737 27.1165 74.9251 27.0312C75.1765 26.946 75.3917 26.8182 75.5707 26.6477C75.7496 26.4773 75.886 26.2685 75.9798 26.0213L78.4982 26.1875C78.3704 26.7926 78.1083 27.321 77.712 27.7727C77.32 28.2202 76.8129 28.5696 76.1907 28.821C75.5728 29.0682 74.859 29.1918 74.0494 29.1918ZM83.0558 23.3239V29H80.3327V19.1818H82.9279V20.9141H83.043C83.2603 20.343 83.6246 19.8913 84.136 19.5589C84.6474 19.2223 85.2674 19.054 85.9961 19.054C86.6779 19.054 87.2724 19.2031 87.7795 19.5014C88.2866 19.7997 88.6808 20.2259 88.962 20.7798C89.2433 21.3295 89.3839 21.9858 89.3839 22.7486V29H86.6609V23.2344C86.6651 22.6335 86.5117 22.1648 86.2006 21.8281C85.8896 21.4872 85.4613 21.3168 84.9158 21.3168C84.5494 21.3168 84.2255 21.3956 83.9442 21.5533C83.6673 21.7109 83.4499 21.9411 83.2923 22.2436C83.1388 22.5419 83.06 22.902 83.0558 23.3239ZM96.7523 19.1818V21.2273H90.8397V19.1818H96.7523ZM92.182 16.8295H94.905V25.983C94.905 26.2344 94.9434 26.4304 95.0201 26.571C95.0968 26.7074 95.2033 26.8033 95.3397 26.8587C95.4803 26.9141 95.6422 26.9418 95.8255 26.9418C95.9533 26.9418 96.0811 26.9311 96.209 26.9098C96.3368 26.8842 96.4348 26.8651 96.503 26.8523L96.9313 28.8786C96.7949 28.9212 96.6032 28.9702 96.356 29.0256C96.1088 29.0852 95.8084 29.1214 95.4547 29.1342C94.7985 29.1598 94.2232 29.0724 93.7289 28.8722C93.2388 28.6719 92.8574 28.3608 92.5847 27.9389C92.312 27.517 92.1777 26.9844 92.182 26.3409V16.8295ZM98.5261 29V19.1818H101.249V29H98.5261ZM99.894 17.9162C99.4892 17.9162 99.1419 17.782 98.8521 17.5135C98.5666 17.2408 98.4238 16.9148 98.4238 16.5355C98.4238 16.1605 98.5666 15.8388 98.8521 15.5703C99.1419 15.2976 99.4892 15.1612 99.894 15.1612C100.299 15.1612 100.644 15.2976 100.93 15.5703C101.219 15.8388 101.364 16.1605 101.364 16.5355C101.364 16.9148 101.219 17.2408 100.93 17.5135C100.644 17.782 100.299 17.9162 99.894 17.9162ZM108.71 19.1818V21.2273H102.651V19.1818H108.71ZM104.038 29V18.4723C104.038 17.7607 104.176 17.1705 104.453 16.7017C104.734 16.233 105.118 15.8814 105.604 15.647C106.089 15.4126 106.641 15.2955 107.259 15.2955C107.677 15.2955 108.058 15.3274 108.403 15.3913C108.753 15.4553 109.013 15.5128 109.183 15.5639L108.697 17.6094C108.591 17.5753 108.459 17.5433 108.301 17.5135C108.148 17.4837 107.99 17.4688 107.828 17.4688C107.428 17.4688 107.148 17.5625 106.991 17.75C106.833 17.9332 106.754 18.1911 106.754 18.5234V29H104.038ZM110.374 29V19.1818H113.097V29H110.374ZM111.742 17.9162C111.337 17.9162 110.99 17.782 110.7 17.5135C110.414 17.2408 110.271 16.9148 110.271 16.5355C110.271 16.1605 110.414 15.8388 110.7 15.5703C110.99 15.2976 111.337 15.1612 111.742 15.1612C112.146 15.1612 112.492 15.2976 112.777 15.5703C113.067 15.8388 113.212 16.1605 113.212 16.5355C113.212 16.9148 113.067 17.2408 112.777 17.5135C112.492 17.782 112.146 17.9162 111.742 17.9162ZM119.714 29.1918C118.708 29.1918 117.843 28.9787 117.119 28.5526C116.399 28.1222 115.845 27.5256 115.457 26.7628C115.074 26 114.882 25.1222 114.882 24.1293C114.882 23.1236 115.076 22.2415 115.463 21.483C115.855 20.7202 116.412 20.1257 117.132 19.6996C117.852 19.2692 118.708 19.054 119.701 19.054C120.558 19.054 121.308 19.2095 121.951 19.5206C122.595 19.8317 123.104 20.2685 123.479 20.831C123.854 21.3935 124.061 22.054 124.099 22.8125H121.529C121.457 22.3224 121.265 21.9283 120.954 21.63C120.647 21.3274 120.245 21.1761 119.746 21.1761C119.324 21.1761 118.956 21.2912 118.64 21.5213C118.329 21.7472 118.086 22.0774 117.912 22.5121C117.737 22.9467 117.65 23.473 117.65 24.0909C117.65 24.7173 117.735 25.25 117.905 25.6889C118.08 26.1278 118.325 26.4624 118.64 26.6925C118.956 26.9226 119.324 27.0376 119.746 27.0376C120.057 27.0376 120.336 26.9737 120.583 26.8459C120.835 26.718 121.042 26.5327 121.203 26.2898C121.37 26.0426 121.478 25.7464 121.529 25.4013H124.099C124.056 26.1513 123.852 26.8118 123.485 27.3828C123.123 27.9496 122.623 28.3928 121.983 28.7124C121.344 29.032 120.588 29.1918 119.714 29.1918ZM128.642 29.1854C128.016 29.1854 127.458 29.0767 126.968 28.8594C126.477 28.6378 126.09 28.3118 125.804 27.8814C125.523 27.4467 125.382 26.9055 125.382 26.2578C125.382 25.7124 125.482 25.2543 125.683 24.8835C125.883 24.5128 126.156 24.2145 126.501 23.9886C126.846 23.7628 127.238 23.5923 127.677 23.4773C128.12 23.3622 128.585 23.2812 129.07 23.2344C129.642 23.1747 130.102 23.1193 130.451 23.0682C130.801 23.0128 131.054 22.9318 131.212 22.8253C131.369 22.7187 131.448 22.5611 131.448 22.3523V22.3139C131.448 21.9091 131.32 21.5959 131.065 21.3743C130.813 21.1527 130.455 21.0419 129.991 21.0419C129.501 21.0419 129.111 21.1506 128.821 21.3679C128.531 21.581 128.34 21.8494 128.246 22.1733L125.727 21.9688C125.855 21.3722 126.107 20.8565 126.482 20.4219C126.857 19.983 127.34 19.6463 127.933 19.4119C128.529 19.1733 129.22 19.054 130.004 19.054C130.549 19.054 131.071 19.1179 131.57 19.2457C132.073 19.3736 132.518 19.5717 132.906 19.8402C133.298 20.1087 133.607 20.4538 133.833 20.8757C134.058 21.2933 134.171 21.794 134.171 22.3778V29H131.589V27.6385H131.512C131.355 27.9453 131.144 28.2159 130.879 28.4503C130.615 28.6804 130.298 28.8615 129.927 28.9936C129.556 29.1214 129.128 29.1854 128.642 29.1854ZM129.422 27.3061C129.823 27.3061 130.176 27.2273 130.483 27.0696C130.79 26.9077 131.031 26.6903 131.205 26.4176C131.38 26.1449 131.468 25.8359 131.468 25.4908V24.4489C131.382 24.5043 131.265 24.5554 131.116 24.6023C130.971 24.6449 130.807 24.6854 130.624 24.7237C130.441 24.7578 130.257 24.7898 130.074 24.8196C129.891 24.8452 129.725 24.8686 129.575 24.8899C129.256 24.9368 128.977 25.0114 128.738 25.1136C128.499 25.2159 128.314 25.3544 128.182 25.5291C128.05 25.6996 127.984 25.9126 127.984 26.1683C127.984 26.5391 128.118 26.8224 128.387 27.0185C128.659 27.2102 129.004 27.3061 129.422 27.3061ZM140.72 29.1918C139.714 29.1918 138.849 28.9787 138.125 28.5526C137.405 28.1222 136.851 27.5256 136.463 26.7628C136.079 26 135.888 25.1222 135.888 24.1293C135.888 23.1236 136.081 22.2415 136.469 21.483C136.861 20.7202 137.417 20.1257 138.138 19.6996C138.858 19.2692 139.714 19.054 140.707 19.054C141.564 19.054 142.314 19.2095 142.957 19.5206C143.601 19.8317 144.11 20.2685 144.485 20.831C144.86 21.3935 145.067 22.054 145.105 22.8125H142.535C142.463 22.3224 142.271 21.9283 141.96 21.63C141.653 21.3274 141.251 21.1761 140.752 21.1761C140.33 21.1761 139.961 21.2912 139.646 21.5213C139.335 21.7472 139.092 22.0774 138.917 22.5121C138.743 22.9467 138.655 23.473 138.655 24.0909C138.655 24.7173 138.741 25.25 138.911 25.6889C139.086 26.1278 139.331 26.4624 139.646 26.6925C139.961 26.9226 140.33 27.0376 140.752 27.0376C141.063 27.0376 141.342 26.9737 141.589 26.8459C141.841 26.718 142.047 26.5327 142.209 26.2898C142.376 26.0426 142.484 25.7464 142.535 25.4013H145.105C145.062 26.1513 144.858 26.8118 144.491 27.3828C144.129 27.9496 143.628 28.3928 142.989 28.7124C142.35 29.032 141.594 29.1918 140.72 29.1918ZM140.081 28.9489H141.334L141.231 29.505C141.67 29.5732 142.028 29.7372 142.305 29.9972C142.586 30.2571 142.729 30.6108 142.733 31.0582C142.738 31.6932 142.444 32.1982 141.851 32.5732C141.259 32.9524 140.428 33.142 139.358 33.142L139.333 31.9276C139.87 31.9276 140.29 31.8615 140.592 31.7294C140.899 31.6016 141.059 31.4013 141.072 31.1286C141.08 30.8686 140.98 30.6705 140.771 30.5341C140.562 30.3977 140.236 30.3018 139.793 30.2464L140.081 28.9489ZM149.648 29.1854C149.022 29.1854 148.463 29.0767 147.973 28.8594C147.483 28.6378 147.096 28.3118 146.81 27.8814C146.529 27.4467 146.388 26.9055 146.388 26.2578C146.388 25.7124 146.488 25.2543 146.689 24.8835C146.889 24.5128 147.162 24.2145 147.507 23.9886C147.852 23.7628 148.244 23.5923 148.683 23.4773C149.126 23.3622 149.591 23.2812 150.076 23.2344C150.647 23.1747 151.108 23.1193 151.457 23.0682C151.806 23.0128 152.06 22.9318 152.218 22.8253C152.375 22.7187 152.454 22.5611 152.454 22.3523V22.3139C152.454 21.9091 152.326 21.5959 152.071 21.3743C151.819 21.1527 151.461 21.0419 150.997 21.0419C150.507 21.0419 150.117 21.1506 149.827 21.3679C149.537 21.581 149.346 21.8494 149.252 22.1733L146.733 21.9688C146.861 21.3722 147.113 20.8565 147.488 20.4219C147.863 19.983 148.346 19.6463 148.939 19.4119C149.535 19.1733 150.225 19.054 151.01 19.054C151.555 19.054 152.077 19.1179 152.576 19.2457C153.078 19.3736 153.524 19.5717 153.912 19.8402C154.304 20.1087 154.613 20.4538 154.838 20.8757C155.064 21.2933 155.177 21.794 155.177 22.3778V29H152.595V27.6385H152.518C152.36 27.9453 152.15 28.2159 151.885 28.4503C151.621 28.6804 151.304 28.8615 150.933 28.9936C150.562 29.1214 150.134 29.1854 149.648 29.1854ZM150.428 27.3061C150.828 27.3061 151.182 27.2273 151.489 27.0696C151.796 26.9077 152.037 26.6903 152.211 26.4176C152.386 26.1449 152.473 25.8359 152.473 25.4908V24.4489C152.388 24.5043 152.271 24.5554 152.122 24.6023C151.977 24.6449 151.813 24.6854 151.63 24.7237C151.446 24.7578 151.263 24.7898 151.08 24.8196C150.897 24.8452 150.73 24.8686 150.581 24.8899C150.262 24.9368 149.983 25.0114 149.744 25.1136C149.505 25.2159 149.32 25.3544 149.188 25.5291C149.056 25.6996 148.99 25.9126 148.99 26.1683C148.99 26.5391 149.124 26.8224 149.392 27.0185C149.665 27.2102 150.01 27.3061 150.428 27.3061ZM149.284 17.9737L147.769 17.9545C147.769 17.1406 147.969 16.5163 148.37 16.0817C148.775 15.647 149.267 15.4276 149.846 15.4233C150.145 15.4233 150.4 15.4723 150.613 15.5703C150.831 15.6641 151.025 15.7749 151.195 15.9027C151.37 16.0305 151.536 16.1435 151.694 16.2415C151.851 16.3352 152.022 16.3821 152.205 16.3821C152.452 16.3778 152.64 16.2862 152.767 16.1072C152.9 15.924 152.966 15.6854 152.966 15.3913L154.455 15.4361C154.446 16.2415 154.242 16.8636 153.841 17.3026C153.441 17.7372 152.953 17.9567 152.377 17.9609C152.058 17.9609 151.789 17.9141 151.572 17.8203C151.359 17.7223 151.172 17.6115 151.01 17.4879C150.848 17.3601 150.69 17.2472 150.537 17.1491C150.383 17.0511 150.211 17.0021 150.019 17.0021C149.797 17.0021 149.618 17.0895 149.482 17.2642C149.35 17.4389 149.284 17.6754 149.284 17.9737ZM161.726 29.1918C160.733 29.1918 159.874 28.9808 159.15 28.5589C158.43 28.1328 157.874 27.5405 157.482 26.782C157.089 26.0192 156.893 25.1349 156.893 24.1293C156.893 23.1151 157.089 22.2287 157.482 21.4702C157.874 20.7074 158.43 20.1151 159.15 19.6932C159.874 19.267 160.733 19.054 161.726 19.054C162.719 19.054 163.575 19.267 164.295 19.6932C165.02 20.1151 165.578 20.7074 165.97 21.4702C166.362 22.2287 166.558 23.1151 166.558 24.1293C166.558 25.1349 166.362 26.0192 165.97 26.782C165.578 27.5405 165.02 28.1328 164.295 28.5589C163.575 28.9808 162.719 29.1918 161.726 29.1918ZM161.739 27.0824C162.19 27.0824 162.567 26.9545 162.87 26.6989C163.173 26.4389 163.401 26.0852 163.554 25.6378C163.712 25.1903 163.79 24.6811 163.79 24.1101C163.79 23.5391 163.712 23.0298 163.554 22.5824C163.401 22.1349 163.173 21.7812 162.87 21.5213C162.567 21.2614 162.19 21.1314 161.739 21.1314C161.283 21.1314 160.899 21.2614 160.588 21.5213C160.281 21.7812 160.049 22.1349 159.891 22.5824C159.738 23.0298 159.661 23.5391 159.661 24.1101C159.661 24.6811 159.738 25.1903 159.891 25.6378C160.049 26.0852 160.281 26.4389 160.588 26.6989C160.899 26.9545 161.283 27.0824 161.739 27.0824Z" fill="black"/>
</svg>
