<svg width="44" height="45" viewBox="0 0 44 45" fill="none" xmlns="http://www.w3.org/2000/svg">
<circle cx="22" cy="22.1689" r="22" fill="#FFF4E6"/>
<path d="M22.2382 26.8529H20.7538C20.5978 26.8552 20.449 26.9188 20.3395 27.0299C20.23 27.141 20.1686 27.2907 20.1686 27.4467C20.1686 27.6027 20.23 27.7524 20.3395 27.8635C20.449 27.9746 20.5978 28.0382 20.7538 28.0404H22.2382C22.3941 28.0382 22.543 27.9746 22.6525 27.8635C22.762 27.7524 22.8234 27.6027 22.8234 27.4467C22.8234 27.2907 22.762 27.141 22.6525 27.0299C22.543 26.9188 22.3941 26.8552 22.2382 26.8529Z" fill="#E8590C"/>
<path d="M24.6293 26.8529C24.4733 26.8551 24.3244 26.9186 24.2148 27.0297C24.1052 27.1408 24.0437 27.2906 24.0437 27.4467C24.0437 27.6028 24.1052 27.7526 24.2148 27.8637C24.3244 27.9748 24.4733 28.0383 24.6294 28.0404C24.7854 28.0383 24.9344 27.9748 25.044 27.8637C25.1536 27.7526 25.215 27.6028 25.215 27.4467C25.215 27.2906 25.1536 27.1408 25.044 27.0297C24.9343 26.9186 24.7854 26.8551 24.6293 26.8529Z" fill="#E8590C"/>
<path d="M28.9197 20.6906C28.7783 20.5925 28.6114 20.5374 28.4393 20.532V18.6064C28.4351 18.386 28.3835 18.1692 28.288 17.9705C28.1924 17.7719 28.0552 17.5962 27.8857 17.4553C27.7162 17.3145 27.5183 17.2118 27.3055 17.1543C27.0927 17.0968 26.8701 17.0858 26.6527 17.122L26.7945 16.3236C26.8613 15.9359 26.7724 15.5375 26.5471 15.2151C26.3217 14.8926 25.9782 14.6722 25.5912 14.6017L24.7137 14.4474C24.4754 14.4047 24.2301 14.4213 23.9997 14.4958C23.7692 14.5703 23.5607 14.7005 23.3925 14.8747V14.1533C23.392 13.7598 23.2355 13.3825 22.9572 13.1042C22.6789 12.8259 22.3016 12.6694 21.9081 12.6689H21.0175C20.6239 12.6694 20.2466 12.8259 19.9684 13.1042C19.6901 13.3825 19.5335 13.7598 19.5331 14.1533V15.9646C19.1382 15.9309 18.7417 15.9209 18.3456 15.9345C17.952 15.935 17.5748 16.0916 17.2965 16.3698C17.0182 16.6481 16.8617 17.0254 16.8612 17.4189V20.532C16.7347 20.5364 16.6106 20.5678 16.4972 20.6238C16.3837 20.6799 16.2835 20.7595 16.2031 20.8573C16.1227 20.955 16.0641 21.0688 16.031 21.191C15.9979 21.3131 15.9912 21.441 16.0113 21.5659L17.6115 31.1727C17.6346 31.3114 17.7061 31.4373 17.8134 31.5282C17.9206 31.619 18.0566 31.6689 18.1971 31.6689H27.1034C27.2439 31.6689 27.3799 31.619 27.4872 31.5282C27.5944 31.4373 27.6659 31.3114 27.689 31.1727L29.2892 21.5659C29.318 21.3999 29.2984 21.2292 29.2329 21.074C29.1674 20.9189 29.0587 20.7858 28.9197 20.6906ZM27.2518 18.6064V20.963C26.7674 21.1234 26.2711 21.2453 25.7675 21.3274V18.6064C25.7682 18.5279 25.7997 18.4528 25.8552 18.3973C25.9107 18.3418 25.9858 18.3103 26.0643 18.3095H26.955C27.0337 18.3096 27.1091 18.341 27.1648 18.3966C27.2204 18.4523 27.2517 18.5277 27.2518 18.6064ZM24.1641 15.8574C24.1704 15.8189 24.1843 15.7821 24.2051 15.749C24.2258 15.716 24.253 15.6874 24.2849 15.665C24.3168 15.6426 24.3529 15.6268 24.391 15.6185C24.4291 15.6102 24.4685 15.6096 24.5069 15.6168L25.3843 15.771C25.4619 15.7849 25.5308 15.829 25.576 15.8936C25.6211 15.9582 25.6388 16.0381 25.6252 16.1157L25.4203 17.27C25.2195 17.3691 25.0434 17.5117 24.9048 17.6875C24.7662 17.8633 24.6685 18.0679 24.619 18.2862C24.5446 18.3064 24.5925 21.3352 24.58 21.4772C24.1078 21.5296 23.6332 21.5575 23.1581 21.5606C23.3069 20.7169 24.0013 16.7799 24.1641 15.8574ZM20.7206 14.1533C20.7207 14.0746 20.752 13.9991 20.8076 13.9435C20.8633 13.8878 20.9388 13.8565 21.0175 13.8564H21.9081C21.9868 13.8565 22.0622 13.8878 22.1179 13.9435C22.1735 13.9991 22.2049 14.0746 22.205 14.1533V20.1275L21.9532 21.5547C21.5413 21.5499 21.1299 21.524 20.7206 21.4771V14.1533ZM18.3456 17.122H19.2362C19.3149 17.1221 19.3904 17.1535 19.446 17.2091C19.5017 17.2648 19.533 17.3402 19.5331 17.4189V21.3278C19.0294 21.2463 18.533 21.1246 18.0487 20.964V17.4189C18.0488 17.3402 18.0801 17.2648 18.1358 17.2091C18.1914 17.1535 18.2669 17.1221 18.3456 17.122ZM26.6004 30.4814H18.7001L17.278 21.9431C20.2649 23.0549 25.0414 23.0543 28.0226 21.9429L26.6004 30.4814Z" fill="#E8590C"/>
<path d="M22.2382 26.8529H20.7538C20.5978 26.8552 20.449 26.9188 20.3395 27.0299C20.23 27.141 20.1686 27.2907 20.1686 27.4467C20.1686 27.6027 20.23 27.7524 20.3395 27.8635C20.449 27.9746 20.5978 28.0382 20.7538 28.0404H22.2382C22.3941 28.0382 22.543 27.9746 22.6525 27.8635C22.762 27.7524 22.8234 27.6027 22.8234 27.4467C22.8234 27.2907 22.762 27.141 22.6525 27.0299C22.543 26.9188 22.3941 26.8552 22.2382 26.8529Z" stroke="#E8590C" stroke-width="0.6"/>
<path d="M24.6293 26.8529C24.4733 26.8551 24.3244 26.9186 24.2148 27.0297C24.1052 27.1408 24.0437 27.2906 24.0437 27.4467C24.0437 27.6028 24.1052 27.7526 24.2148 27.8637C24.3244 27.9748 24.4733 28.0383 24.6294 28.0404C24.7854 28.0383 24.9344 27.9748 25.044 27.8637C25.1536 27.7526 25.215 27.6028 25.215 27.4467C25.215 27.2906 25.1536 27.1408 25.044 27.0297C24.9343 26.9186 24.7854 26.8551 24.6293 26.8529Z" stroke="#E8590C" stroke-width="0.6"/>
<path d="M28.9197 20.6906C28.7783 20.5925 28.6114 20.5374 28.4393 20.532V18.6064C28.4351 18.386 28.3835 18.1692 28.288 17.9705C28.1924 17.7719 28.0552 17.5962 27.8857 17.4553C27.7162 17.3145 27.5183 17.2118 27.3055 17.1543C27.0927 17.0968 26.8701 17.0858 26.6527 17.122L26.7945 16.3236C26.8613 15.9359 26.7724 15.5375 26.5471 15.2151C26.3217 14.8926 25.9782 14.6722 25.5912 14.6017L24.7137 14.4474C24.4754 14.4047 24.2301 14.4213 23.9997 14.4958C23.7692 14.5703 23.5607 14.7005 23.3925 14.8747V14.1533C23.392 13.7598 23.2355 13.3825 22.9572 13.1042C22.6789 12.8259 22.3016 12.6694 21.9081 12.6689H21.0175C20.6239 12.6694 20.2466 12.8259 19.9684 13.1042C19.6901 13.3825 19.5335 13.7598 19.5331 14.1533V15.9646C19.1382 15.9309 18.7417 15.9209 18.3456 15.9345C17.952 15.935 17.5748 16.0916 17.2965 16.3698C17.0182 16.6481 16.8617 17.0254 16.8612 17.4189V20.532C16.7347 20.5364 16.6106 20.5678 16.4972 20.6238C16.3837 20.6799 16.2835 20.7595 16.2031 20.8573C16.1227 20.955 16.0641 21.0688 16.031 21.191C15.9979 21.3131 15.9912 21.441 16.0113 21.5659L17.6115 31.1727C17.6346 31.3114 17.7061 31.4373 17.8134 31.5282C17.9206 31.619 18.0566 31.6689 18.1971 31.6689H27.1034C27.2439 31.6689 27.3799 31.619 27.4872 31.5282C27.5944 31.4373 27.6659 31.3114 27.689 31.1727L29.2892 21.5659C29.318 21.3999 29.2984 21.2292 29.2329 21.074C29.1674 20.9189 29.0587 20.7858 28.9197 20.6906ZM27.2518 18.6064V20.963C26.7674 21.1234 26.2711 21.2453 25.7675 21.3274V18.6064C25.7682 18.5279 25.7997 18.4528 25.8552 18.3973C25.9107 18.3418 25.9858 18.3103 26.0643 18.3095H26.955C27.0337 18.3096 27.1091 18.341 27.1648 18.3966C27.2204 18.4523 27.2517 18.5277 27.2518 18.6064ZM24.1641 15.8574C24.1704 15.8189 24.1843 15.7821 24.2051 15.749C24.2258 15.716 24.253 15.6874 24.2849 15.665C24.3168 15.6426 24.3529 15.6268 24.391 15.6185C24.4291 15.6102 24.4685 15.6096 24.5069 15.6168L25.3843 15.771C25.4619 15.7849 25.5308 15.829 25.576 15.8936C25.6211 15.9582 25.6388 16.0381 25.6252 16.1157L25.4203 17.27C25.2195 17.3691 25.0434 17.5117 24.9048 17.6875C24.7662 17.8633 24.6685 18.0679 24.619 18.2862C24.5446 18.3064 24.5925 21.3352 24.58 21.4772C24.1078 21.5296 23.6332 21.5575 23.1581 21.5606C23.3069 20.7169 24.0013 16.7799 24.1641 15.8574ZM20.7206 14.1533C20.7207 14.0746 20.752 13.9991 20.8076 13.9435C20.8633 13.8878 20.9388 13.8565 21.0175 13.8564H21.9081C21.9868 13.8565 22.0622 13.8878 22.1179 13.9435C22.1735 13.9991 22.2049 14.0746 22.205 14.1533V20.1275L21.9532 21.5547C21.5413 21.5499 21.1299 21.524 20.7206 21.4771V14.1533ZM18.3456 17.122H19.2362C19.3149 17.1221 19.3904 17.1535 19.446 17.2091C19.5017 17.2648 19.533 17.3402 19.5331 17.4189V21.3278C19.0294 21.2463 18.533 21.1246 18.0487 20.964V17.4189C18.0488 17.3402 18.0801 17.2648 18.1358 17.2091C18.1914 17.1535 18.2669 17.1221 18.3456 17.122ZM26.6004 30.4814H18.7001L17.278 21.9431C20.2649 23.0549 25.0414 23.0543 28.0226 21.9429L26.6004 30.4814Z" stroke="#E8590C" stroke-width="0.6"/>
</svg>
