<svg width="44" height="45" viewBox="0 0 44 45" fill="none" xmlns="http://www.w3.org/2000/svg">
<circle cx="22" cy="22.1689" r="22" fill="#FFF4E6"/>
<g clip-path="url(#clip0_41_1483)">
<path d="M18.3608 15.9316H26.3608V14.0192C26.3608 13.7656 26.2555 13.5224 26.0679 13.343C25.8804 13.1637 25.6261 13.063 25.3608 13.063H19.3608C19.0956 13.063 18.8413 13.1637 18.6537 13.343C18.4662 13.5224 18.3608 13.7656 18.3608 14.0192V15.9316Z" stroke="#E8590C" stroke-width="2" stroke-linecap="round" stroke-linejoin="round"/>
<path d="M26.3608 15.9316L27.4548 17.6136C28.0469 18.5233 28.3608 19.5733 28.3608 20.6448V28.3624C28.3608 28.8696 28.1501 29.356 27.7751 29.7147C27.4 30.0733 26.8913 30.2748 26.3608 30.2748H18.3608C17.8304 30.2748 17.3217 30.0733 16.9466 29.7147C16.5716 29.356 16.3608 28.8696 16.3608 28.3624V20.6448C16.3609 19.5733 16.6748 18.5233 17.2668 17.6136L18.3608 15.9316" stroke="#E8590C" stroke-width="2" stroke-linecap="round" stroke-linejoin="round"/>
<path d="M20.3608 25.4938C20.3608 26.001 20.5716 26.4874 20.9466 26.846C21.3217 27.2047 21.8304 27.4062 22.3608 27.4062C22.8913 27.4062 23.4 27.2047 23.7751 26.846C24.1501 26.4874 24.3608 26.001 24.3608 25.4938C24.3608 24.9865 24.1501 24.5001 23.7751 24.1415C23.4 23.7828 22.8913 23.5813 22.3608 23.5813C21.8304 23.5813 21.3217 23.7828 20.9466 24.1415C20.5716 24.5001 20.3608 24.9865 20.3608 25.4938Z" stroke="#E8590C" stroke-width="2" stroke-linecap="round" stroke-linejoin="round"/>
<path d="M20.3608 19.7565H24.3608" stroke="#E8590C" stroke-width="2" stroke-linecap="round" stroke-linejoin="round"/>
</g>
<defs>
<clipPath id="clip0_41_1483">
<rect width="24" height="22.9491" fill="white" transform="translate(10.3608 10.1943)"/>
</clipPath>
</defs>
</svg>
